<svg width="16" height="19" viewBox="0 0 16 19" fill="none" xmlns="http://www.w3.org/2000/svg">
<path d="M2.08984 18.06C1.82462 18.06 1.57026 17.9546 1.38273 17.7671C1.19519 17.5796 1.08984 17.3252 1.08984 17.06L0.939835 2.4C0.927794 2.10234 0.974718 1.80525 1.07791 1.52579C1.1811 1.24633 1.33852 0.990038 1.54112 0.77164C1.74372 0.553243 1.9875 0.377054 2.25843 0.253208C2.52937 0.129361 2.82211 0.0603016 3.11984 0.05L12.7098 0C13.0079 0.00520682 13.3021 0.0690924 13.5755 0.188008C13.849 0.306923 14.0963 0.478538 14.3034 0.69305C14.5104 0.907563 14.6732 1.16077 14.7824 1.43821C14.8917 1.71565 14.9451 2.01189 14.9398 2.31L15.0798 16.97C15.0816 17.1452 15.0372 17.3178 14.9512 17.4705C14.8652 17.6232 14.7406 17.7506 14.5898 17.84C14.4378 17.9278 14.2654 17.974 14.0898 17.974C13.9143 17.974 13.7419 17.9278 13.5898 17.84L7.88984 14.68L2.59984 17.91C2.44319 17.9975 2.26891 18.0488 2.08984 18.06ZM7.84984 12.51C8.0236 12.5103 8.19486 12.5514 8.34984 12.63L13.0598 15.24L12.9398 2.29C12.9398 2.09 12.8098 1.95 12.7298 1.96L3.12984 2.05C3.04984 2.05 2.93984 2.18 2.93984 2.38L3.05984 15.28L7.33984 12.65C7.49528 12.561 7.67074 12.5128 7.84984 12.51Z" fill="white"/>
</svg>
