<svg width="18" height="16" viewBox="0 0 18 16" fill="none" xmlns="http://www.w3.org/2000/svg">
<path d="M3 2C3.26522 2 3.51957 1.89464 3.70711 1.70711C3.89464 1.51957 4 1.26522 4 1C4 0.734784 3.89464 0.48043 3.70711 0.292893C3.51957 0.105357 3.26522 0 3 0H1C0.734784 0 0.48043 0.105357 0.292893 0.292893C0.105357 0.48043 0 0.734784 0 1V15C0 15.2652 0.105357 15.5196 0.292893 15.7071C0.48043 15.8946 0.734784 16 1 16H3C3.26522 16 3.51957 15.8946 3.70711 15.7071C3.89464 15.5196 4 15.2652 4 15C4 14.7348 3.89464 14.4804 3.70711 14.2929C3.51957 14.1054 3.26522 14 3 14H2V2H3Z" fill="white"/>
<path d="M16.82 7.42001L14 3.42001C13.8471 3.20442 13.615 3.05815 13.3545 3.01318C13.0941 2.96821 12.8264 3.02819 12.61 3.18001C12.5018 3.2558 12.4098 3.35226 12.3391 3.46382C12.2684 3.57538 12.2206 3.69983 12.1982 3.83C12.1759 3.96016 12.1796 4.09345 12.2091 4.22218C12.2386 4.35091 12.2933 4.47253 12.37 4.58001L14.09 7.00001H6C5.73478 7.00001 5.48043 7.10537 5.29289 7.29291C5.10536 7.48044 5 7.7348 5 8.00001C5 8.26523 5.10536 8.51958 5.29289 8.70712C5.48043 8.89465 5.73478 9.00001 6 9.00001H14L12.2 11.4C12.1212 11.5051 12.0639 11.6246 12.0313 11.7518C11.9987 11.879 11.9915 12.0114 12.01 12.1414C12.0286 12.2714 12.0726 12.3965 12.1395 12.5095C12.2064 12.6225 12.2949 12.7212 12.4 12.8C12.5731 12.9298 12.7836 13 13 13C13.1552 13 13.3084 12.9639 13.4472 12.8944C13.5861 12.825 13.7069 12.7242 13.8 12.6L16.8 8.60001C16.9281 8.43088 16.999 8.2254 17.0026 8.01328C17.0062 7.80116 16.9423 7.59339 16.82 7.42001V7.42001Z" fill="white"/>
</svg>
